<?xml version="1.0" encoding="utf-8"?>
<!-- Generator: Adobe Illustrator 26.0.1, SVG Export Plug-In . SVG Version: 6.00 Build 0)  -->
<svg version="1.1" id="Layer_1" xmlns="http://www.w3.org/2000/svg" xmlns:xlink="http://www.w3.org/1999/xlink" x="0px" y="0px"
	 viewBox="0 0 40 40" enable-background="new 0 0 40 40" xml:space="preserve">
<filter  id="AI_GaussianBlur_4">
	<feGaussianBlur  stdDeviation="0.3"></feGaussianBlur>
</filter>
<path fill="#2A2A2A" filter="url(#AI_GaussianBlur_4)" d="M14.3,3.1H5.5c-1.2,0-2.2,1-2.2,2.2v28.6c0,1.2,1,2.2,2.2,2.2h8.7
	c9.1,0,16.5-7.4,16.5-16.5v0C30.8,10.5,23.4,3.1,14.3,3.1z M14.6,30.7h-4.3V8.5l4.3,0C26.9,8.5,26.9,30.7,14.6,30.7z"/>
<linearGradient id="SVGID_1_" gradientUnits="userSpaceOnUse" x1="16.4807" y1="4.3981" x2="16.4807" y2="32.3951">
	<stop  offset="0" style="stop-color:#F36C6A"/>
	<stop  offset="1" style="stop-color:#D0302C"/>
</linearGradient>
<path fill="url(#SVGID_1_)" d="M13.7,2.5H5c-1.2,0-2.2,1-2.2,2.2v28.6c0,1.2,1,2.2,2.2,2.2h8.7c9.1,0,16.5-7.4,16.5-16.5v0
	C30.2,9.9,22.8,2.5,13.7,2.5z M14,30.1H9.7V7.9l4.3,0C26.3,7.9,26.3,30.1,14,30.1z"/>
<g filter="url(#AI_GaussianBlur_4)">
	
		<linearGradient id="SVGID_00000145020135532068776850000009153427533003490701_" gradientUnits="userSpaceOnUse" x1="0.7077" y1="4.0489" x2="18.596" y2="4.0489">
		<stop  offset="0" style="stop-color:#FFFFFF;stop-opacity:0"/>
		<stop  offset="0.5" style="stop-color:#FFFFFF"/>
		<stop  offset="1" style="stop-color:#FFFFFF;stop-opacity:0"/>
	</linearGradient>
	<path fill="url(#SVGID_00000145020135532068776850000009153427533003490701_)" d="M3.6,3.6c0,0,0.3-0.7,1.9-0.7s6.3,0,8.3,0
		s4.5,0.2,7.8,2.4c0,0-2.7-2-6.8-2s-7.9,0-9.1,0S3.6,3.6,3.6,3.6z"/>
</g>
<g filter="url(#AI_GaussianBlur_4)">
	
		<linearGradient id="SVGID_00000057855776814634092500000016994521523098281646_" gradientUnits="userSpaceOnUse" x1="0.7077" y1="4.0489" x2="18.596" y2="4.0489">
		<stop  offset="0" style="stop-color:#FFFFFF;stop-opacity:0"/>
		<stop  offset="0.5" style="stop-color:#FFFFFF"/>
		<stop  offset="1" style="stop-color:#FFFFFF;stop-opacity:0"/>
	</linearGradient>
	<path fill="url(#SVGID_00000057855776814634092500000016994521523098281646_)" d="M3.6,3.6c0,0,0.3-0.7,1.9-0.7s6.3,0,8.3,0
		s4.5,0.2,7.8,2.4c0,0-2.7-2-6.8-2s-7.9,0-9.1,0S3.6,3.6,3.6,3.6z"/>
</g>
<g filter="url(#AI_GaussianBlur_4)">
	
		<linearGradient id="SVGID_00000100358426270525839970000013670498991160095894_" gradientUnits="userSpaceOnUse" x1="7.4012" y1="18.649" x2="18.9251" y2="18.649">
		<stop  offset="0" style="stop-color:#FFFFFF;stop-opacity:0"/>
		<stop  offset="0.5" style="stop-color:#FFFFFF"/>
		<stop  offset="1" style="stop-color:#FFFFFF;stop-opacity:0"/>
	</linearGradient>
	<path fill="url(#SVGID_00000100358426270525839970000013670498991160095894_)" d="M14.1,7.4c-2.3,0-3.8,0-4.4,0c-0.2,0-0.2,0-0.2,0
		H9.3l0.2,22.5V7.7c0,0,1.2,0,3.6,0s5.1,0.1,7.8,3.3C20.8,11,18.9,7.4,14.1,7.4z"/>
</g>
<g filter="url(#AI_GaussianBlur_4)">
	
		<linearGradient id="SVGID_00000047771537024872464460000002398116534647513020_" gradientUnits="userSpaceOnUse" x1="7.4012" y1="18.649" x2="18.9251" y2="18.649">
		<stop  offset="0" style="stop-color:#FFFFFF;stop-opacity:0"/>
		<stop  offset="0.5" style="stop-color:#FFFFFF"/>
		<stop  offset="1" style="stop-color:#FFFFFF;stop-opacity:0"/>
	</linearGradient>
	<path fill="url(#SVGID_00000047771537024872464460000002398116534647513020_)" d="M14.1,7.4c-2.3,0-3.8,0-4.4,0c-0.2,0-0.2,0-0.2,0
		H9.3l0.2,22.5V7.7c0,0,1.2,0,3.6,0s5.1,0.1,7.8,3.3C20.8,11,18.9,7.4,14.1,7.4z"/>
</g>
<g filter="url(#AI_GaussianBlur_4)">
	
		<linearGradient id="SVGID_00000179611126967306458500000016209364896227727279_" gradientUnits="userSpaceOnUse" x1="6.1998" y1="-42.4369" x2="17.1652" y2="-42.4369" gradientTransform="matrix(1.0189 0 0 -1.0189 1.6035 -14.3926)">
		<stop  offset="0" style="stop-color:#FFFFFF;stop-opacity:0"/>
		<stop  offset="0.5" style="stop-color:#FFFFFF"/>
		<stop  offset="1" style="stop-color:#FFFFFF;stop-opacity:0"/>
	</linearGradient>
	<path fill="url(#SVGID_00000179611126967306458500000016209364896227727279_)" d="M14.1,30.7c-2.4,0-4.4,0-4.4,0v-0.3
		c0,0,0.9,0,3.3,0s5.2-0.1,7.9-3.4C21,27,18.9,30.7,14.1,30.7z"/>
</g>
<g filter="url(#AI_GaussianBlur_4)">
	
		<linearGradient id="SVGID_00000036251033658274471170000002802557510122895542_" gradientUnits="userSpaceOnUse" x1="6.1998" y1="-42.4369" x2="17.1652" y2="-42.4369" gradientTransform="matrix(1.0189 0 0 -1.0189 1.6035 -14.3926)">
		<stop  offset="0" style="stop-color:#FFFFFF;stop-opacity:0"/>
		<stop  offset="0.5" style="stop-color:#FFFFFF"/>
		<stop  offset="1" style="stop-color:#FFFFFF;stop-opacity:0"/>
	</linearGradient>
	<path fill="url(#SVGID_00000036251033658274471170000002802557510122895542_)" d="M14.1,30.7c-2.4,0-4.4,0-4.4,0v-0.3
		c0,0,0.9,0,3.3,0s5.2-0.1,7.9-3.4C21,27,18.9,30.7,14.1,30.7z"/>
</g>
<g filter="url(#AI_GaussianBlur_4)">
	<path fill="#A63C3C" d="M24.7,16.4c-4.7,0-8.5,3.8-8.5,8.5s3.8,8.5,8.5,8.5s8.5-3.8,8.5-8.5S29.4,16.4,24.7,16.4z M24.7,29
		c-2.2,0-4.1-1.8-4.1-4.1s1.8-4.1,4.1-4.1s4.1,1.8,4.1,4.1S27,29,24.7,29z"/>
	<path fill="#A63C3C" d="M37,35l-2.2,2.2c-0.4,0.4-1,0.4-1.3,0L27,30.8c-0.4-0.4-0.4-1,0-1.3l2.2-2.2c0.4-0.4,1-0.4,1.3,0l6.4,6.4
		C37.3,34.1,37.3,34.7,37,35z"/>
</g>
<g>
	<g>
		<path fill="#FF9900" d="M24.3,16c-4.7,0-8.5,3.8-8.5,8.5s3.8,8.5,8.5,8.5s8.5-3.8,8.5-8.5S29,16,24.3,16z M24.3,28.5
			c-2.2,0-4.1-1.8-4.1-4.1s1.8-4.1,4.1-4.1s4.1,1.8,4.1,4.1S26.6,28.5,24.3,28.5z"/>
		<path fill="#FF9900" d="M36.6,34.6l-2.2,2.2c-0.4,0.4-1,0.4-1.3,0l-6.4-6.4c-0.4-0.4-0.4-1,0-1.3l2.2-2.2c0.4-0.4,1-0.4,1.3,0
			l6.4,6.4C37,33.6,37,34.2,36.6,34.6z"/>
	</g>
</g>
</svg>
